<svg version="1.0" xmlns="http://www.w3.org/2000/svg" viewBox="0 0 1335.000000 1011.000000">

<g transform="translate(0.000000,1011.000000) scale(0.100000,-0.100000)">
<path fill="#323230" d="M6565 10094 c-11 -2 -45 -9 -75 -15 -123 -25 -284 -115 -377 -210
-69 -71 -100 -118 -124 -187 -26 -76 -169 -649 -263 -1057 -42 -181 -86 -367
-96 -412 -11 -45 -20 -92 -20 -105 0 -15 57 -105 148 -234 82 -115 320 -452
530 -749 209 -297 387 -549 395 -559 13 -18 27 0 202 265 102 156 252 383 332
504 80 121 218 332 308 468 l164 249 -44 121 c-24 67 -93 261 -154 430 l-111
308 51 102 c92 183 226 335 351 396 180 88 507 42 657 -93 l23 -21 -4 70 c-4
90 -51 190 -138 299 -108 134 -201 193 -370 235 -94 23 -313 51 -401 51 -42 0
-74 8 -120 30 -71 33 -215 71 -359 95 -91 16 -460 30 -505 19z"/>
<path fill="#323230" d="M10 9722 c0 -5 115 -197 256 -428 141 -230 295 -484 343 -563 47 -79
95 -147 106 -152 11 -5 819 -236 1795 -514 976 -278 1828 -521 1893 -540 65
-18 120 -35 121 -37 2 -2 57 -93 123 -203 127 -210 313 -518 603 -995 95 -157
262 -431 370 -610 109 -179 268 -442 355 -585 87 -143 170 -280 185 -305 15
-25 105 -173 200 -330 95 -157 202 -333 238 -392 35 -60 67 -108 71 -108 6 0
57 82 516 840 158 261 318 525 355 585 37 61 144 236 237 390 93 154 209 345
258 425 48 80 145 240 215 355 70 116 191 316 270 445 78 129 177 291 218 360
42 69 77 127 78 129 2 2 90 28 196 58 1767 502 3623 1034 3629 1040 4 5 52 82
107 173 55 91 118 194 140 230 244 398 442 725 442 731 0 5 -21 1 -47 -7 -27
-8 -66 -19 -88 -25 -43 -12 -617 -174 -1410 -399 -269 -77 -690 -196 -935
-265 -613 -174 -621 -176 -1195 -339 -839 -238 -1174 -333 -1283 -363 l-104
-28 -70 -115 c-39 -63 -96 -155 -126 -205 -30 -49 -72 -117 -92 -150 -20 -33
-138 -226 -262 -430 -257 -421 -403 -661 -461 -755 -22 -36 -101 -166 -177
-290 -453 -745 -410 -678 -423 -654 -5 10 -24 42 -42 69 -18 28 -166 271 -330
540 -164 270 -339 558 -390 640 -79 128 -280 459 -724 1188 l-96 158 -65 19
c-36 11 -200 57 -365 104 -165 46 -469 132 -675 191 -915 260 -1138 323 -1675
475 -314 89 -750 212 -970 275 -481 137 -946 268 -1150 325 -82 24 -153 44
-157 47 -5 2 -8 0 -8 -5z"/>
<path fill="#e0222c" d="M1067 7973 c13 -26 35 -61 46 -78 12 -16 68 -104 124 -195 56 -91
117 -190 136 -220 19 -30 88 -140 152 -245 65 -104 129 -208 143 -231 l25 -41
201 -57 c318 -91 753 -215 846 -241 47 -13 135 -38 195 -55 61 -18 155 -44
210 -60 624 -173 1027 -290 1039 -301 6 -5 21 -9 34 -9 31 0 274 -68 287 -81
5 -5 20 -9 33 -9 21 0 284 -71 322 -87 61 -26 60 -4 -6 98 -24 37 -44 72 -44
78 0 6 -4 11 -9 11 -5 0 -12 9 -16 20 -3 11 -24 46 -46 79 -21 32 -39 64 -39
70 0 6 -3 11 -8 11 -4 0 -16 17 -27 38 -10 20 -36 62 -56 92 -20 30 -57 90
-83 132 -25 42 -60 101 -78 130 -41 66 -46 74 -104 173 -26 44 -53 90 -61 102
-8 14 -31 27 -58 34 -25 6 -48 15 -51 20 -3 5 -13 9 -24 9 -10 0 -74 15 -141
34 -68 19 -191 53 -274 76 -82 23 -294 82 -470 132 -295 83 -391 110 -655 183
-52 14 -124 34 -160 45 -36 10 -189 53 -340 95 -394 110 -521 145 -555 156
-16 5 -113 32 -215 60 -102 28 -192 55 -200 59 -8 4 -34 10 -57 14 l-41 6 25
-47z"/>
<path fill="#e0222c" d="M12220 8004 c-30 -8 -91 -26 -135 -39 -64 -19 -627 -176 -710 -198
-11 -3 -58 -16 -105 -30 -47 -14 -177 -50 -290 -81 -113 -31 -241 -67 -285
-81 -44 -13 -150 -42 -235 -65 -85 -22 -175 -47 -200 -55 -25 -8 -135 -39
-245 -70 -110 -30 -216 -60 -235 -65 -107 -31 -187 -50 -206 -50 -12 0 -24 -4
-26 -8 -1 -5 -50 -21 -108 -36 -58 -15 -118 -31 -135 -37 -16 -6 -55 -17 -85
-25 -151 -41 -151 -41 -208 -144 -7 -14 -21 -34 -31 -45 -10 -11 -21 -28 -24
-37 -4 -10 -23 -44 -44 -75 -47 -74 -103 -164 -103 -169 0 -5 -160 -265 -191
-311 -16 -23 -29 -44 -29 -48 0 -3 -26 -47 -58 -98 -32 -51 -70 -113 -85 -139
l-27 -47 47 6 c27 2 53 9 59 14 7 5 99 34 205 64 243 69 301 85 469 135 74 21
164 47 200 55 36 9 79 20 95 25 17 5 77 22 135 38 58 16 112 32 120 35 14 5
626 181 795 228 38 10 102 28 140 39 39 11 82 20 98 20 15 0 27 3 27 8 0 4 55
23 123 41 67 19 187 53 267 76 80 23 181 52 225 65 44 12 112 31 151 42 l70
21 57 91 c32 50 61 98 67 106 5 8 39 65 76 125 36 61 83 135 103 165 20 30 38
60 40 65 6 15 98 162 142 227 22 31 39 59 39 62 0 3 29 53 65 111 36 58 59
105 53 104 -7 0 -38 -7 -68 -15z"/>
<path fill="#323230" d="M0 1410 l0 -1410 880 0 880 0 -2 278 -3 277 -557 3 -558 2 -2 1128
-3 1127 -317 3 -318 2 0 -1410z"/>
<path fill="#323230" d="M2540 1410 l0 -1410 885 0 885 0 0 280 0 280 -570 0 -570 0 0 305 0
305 525 0 525 0 0 285 0 285 -525 0 -525 0 0 255 0 255 570 0 570 0 0 285 0
285 -885 0 -885 0 0 -1410z"/>
<path fill="#323230" d="M5220 1411 l0 -1412 733 4 c717 3 734 4 812 25 264 73 414 224 464
470 17 82 14 544 -4 611 -42 161 -149 272 -320 334 l-70 25 35 15 c80 35 168
114 215 194 47 78 55 137 55 394 0 202 -3 247 -20 313 -57 224 -206 348 -488
408 -91 19 -140 21 -754 25 l-658 5 0 -1411z m1141 879 c52 -14 100 -49 123
-90 19 -32 21 -51 21 -220 0 -202 -5 -225 -61 -269 -54 -43 -113 -51 -356 -51
l-228 0 0 320 0 320 233 0 c127 0 248 -5 268 -10z m99 -1146 c118 -35 154
-115 148 -327 -4 -149 -19 -194 -81 -241 -72 -55 -100 -59 -394 -64 l-273 -4
0 326 0 326 273 0 c221 0 284 -3 327 -16z"/>
<path fill="#323230" d="M8070 2536 l0 -285 633 -3 632 -3 62 -29 c65 -30 100 -66 131 -134
14 -31 17 -71 17 -237 0 -139 -4 -211 -13 -237 -34 -96 -111 -156 -227 -177
-38 -7 -265 -11 -647 -11 l-588 0 0 -710 0 -710 320 0 320 0 0 435 0 435 184
0 183 0 115 -162 c63 -90 201 -286 308 -435 l193 -273 380 0 c302 0 377 3 370
13 -40 49 -663 939 -662 945 0 4 28 21 62 37 86 41 202 158 249 250 77 148 81
178 86 565 3 317 2 354 -17 445 -28 140 -84 250 -170 336 -79 78 -145 117
-266 158 -185 62 -212 64 -967 68 l-688 5 0 -286z"/>
<path fill="#323230" d="M12095 2804 c-336 -34 -546 -117 -718 -283 -120 -115 -193 -260 -216
-424 -7 -50 -11 -308 -11 -701 0 -676 4 -731 55 -859 122 -299 431 -488 865
-527 367 -34 712 35 937 188 95 64 204 187 251 284 79 161 75 122 79 877 3
455 0 698 -7 745 -24 156 -83 275 -194 393 -143 152 -334 245 -591 289 -88 14
-371 26 -450 18z m326 -558 c130 -28 223 -98 259 -194 19 -50 20 -78 20 -647
0 -574 -1 -596 -20 -649 -37 -98 -120 -160 -258 -192 -102 -24 -325 -16 -412
15 -112 40 -177 101 -205 195 -22 74 -22 1189 0 1263 30 100 129 180 259 208
81 18 275 18 357 1z"/>
</g>
</svg>
