<svg width="15px" xmlns="http://www.w3.org/2000/svg" viewBox="0 0 1080 1800"><g transform="translate(0.000000,1223.000000) scale(0.100000,-0.100000)"><path d="M5185 12220 c-1237 -125 -2232 -1210 -2415 -2633 -11 -87 -20 -181                                        -20 -210 0 -29 -3 -62 -6 -74 l-6 -23 -1277 0 -1277 0 -53 -26 c-64 -32 -106                                        -86 -121 -157 -9 -43 21 -780 169 -4047 100 -2197 186 -4029 191 -4071 35                                        -258 152 -500 327 -675 126 -126 276 -211 458 -261 l100 -28 4115 0 4115 0 87                                        22 c249 64 446 185 594 367 148 181 228 376 254 618 6 57 98 1890 205 4075                                        175 3571 193 3976 181 4017 -20 67 -61 114 -120 142 l-51 24 -1277 0 -1277 0                                        -5 43 c-3 23 -10 100 -16 170 -93 1075 -729 2060 -1605 2487 -237 116 -465                                        188 -710 225 -130 19 -433 27 -560 15z m550 -740 c756 -162 1351 -815 1549                                        -1702 25 -110 49 -279 60 -425 l6 -73 -1940 0 -1940 0 5 53 c20 221 30 297 52                                        407 133 662 514 1231 1028 1535 202 120 406 189 670 229 17 2 116 3 220 1 147                                        -3 213 -8 290 -25z m-115 -3731 c466 -39 961 -203 1365 -451 150 -93 168 -125                                        118 -215 -57 -104 -177 -289 -201 -311 -34 -32 -65 -25 -163 38 -376 241 -802                                        379 -1264 409 -359 23 -665 -54 -922 -231 -84 -58 -211 -188 -266 -271 -146                                        -221 -184 -494 -102 -730 43 -126 101 -213 220 -333 219 -221 456 -345 1025                                        -539 1224 -417 1803 -871 1946 -1525 26 -117 26 -462 1 -597 -68 -359 -219                                        -641 -475 -884 -236 -225 -538 -370 -929 -448 -208 -42 -364 -55 -578 -48                                        -485 16 -959 132 -1380 337 -218 106 -662 412 -680 470 -7 22 16 62 178 300                                        118 174 128 176 271 60 245 -197 566 -372 868 -473 281 -94 605 -146 823 -132                                        459 29 827 169 1064 404 120 119 214 275 256 426 25 92 31 302 11 399 -93 452                                        -533 817 -1269 1055 -317 103 -807 294 -1051 411 -93 44 -279 165 -380 248                                        -452 368 -636 846 -535 1380 135 709 836 1236 1684 1265 100 3 221 -1 365 -14z" /></g></svg>